# xmcd CD database file
# Copyright (C) 1995 Ti Kan
#
# Track frame offsets:
#	150
#	17640
#	42175
#	63123
#	77478
#	92150
#	104365
#	120905
#	136305
#	150730
#	163765
#	174940
#	194293
#	207430
#	222418
#	237335
#	262588
#	285683
#
# Disc length: 4034 seconds
#
# Revision: 1
# Processed by: cddbd v1.4PL0 Copyright (c) Steve Scherf et al.
# Submitted via: NotifyCDPlayer 1.60beta16
#
DISCID=eb0fc012
DTITLE=Various Artist - GET WEAVING Volume 1
DYEAR=1900
DGENRE=
TTITLE0=Loud Dirty Fast and Loose - WES McGHEE
TTITLE1=Different Ways To Sing The Blues - PINTO BENNETT
TTITLE2=Wish You Were Here - TERRY CLARKE 
TTITLE3=Man In The Moon - KIMMIE RHODES 
TTITLE4=Bar Room Balladeer - FREDDIE STEADY
TTITLE5=Uncle Abel - LE RUE 
TTITLE6=The Prisoners Song - REG MEUROS
TTITLE7=Sisters Coming Home - RATTLESNAKE ANNIE
TTITLE8=Sinful Life - PONTY BONE and THE SQUEEZETONES
TTITLE9=No Angel On My Wing - WES McGHEE
TTITLE10=Deep In Love and Buried In The Blues - JOE GRACEY
TTITLE11=Who Knows Where The Time Goes - RON KAVANA
TTITLE12=Cared Enough To Lie - PINTO BENNETT
TTITLE13=It'll Do - KIMMIE RHODES
TTITLE14=Blow Wind Blow - TERRY CLARKE
TTITLE15=Spanish Is The Loving Tongue - JOE GILTRAP
TTITLE16=Sunman - LE RUE
TTITLE17=Remember Me - COMPANIONS OF THE ROSY HOURS
EXTD=Get Weaving Records 1992  GWCD 001
EXTT0=
EXTT1=
EXTT2=
EXTT3=
EXTT4=
EXTT5=
EXTT6=
EXTT7=
EXTT8=
EXTT9=
EXTT10=
EXTT11=
EXTT12=
EXTT13=
EXTT14=
EXTT15=
EXTT16=
EXTT17=
PLAYORDER=
